<svg width="528" height="529" viewBox="0 0 528 529" fill="none" xmlns="http://www.w3.org/2000/svg">
<path d="M162.877 256.063C155.364 251.245 149.864 243.468 151.173 235.35C151.303 234.547 151.609 233.783 152.069 233.112C152.529 232.442 153.133 231.882 153.835 231.473C154.538 231.063 155.323 230.815 156.133 230.746C156.943 230.676 157.759 230.787 158.521 231.071C178.519 238.496 200.827 233.887 220.583 215.143C221.253 214.507 222.073 214.05 222.966 213.814C223.859 213.579 224.797 213.572 225.694 213.794C226.591 214.017 227.417 214.462 228.096 215.087C228.775 215.713 229.286 216.5 229.581 217.376C232.122 224.955 229.845 235.174 224.301 243.578C221.02 248.533 216.718 252.731 211.683 255.89C206.648 259.048 200.997 261.095 195.107 261.893C181.929 263.84 170.731 261.09 162.877 256.063ZM360.294 256.063C367.807 251.245 373.318 243.468 372.009 235.35C371.88 234.547 371.574 233.783 371.113 233.112C370.653 232.442 370.05 231.882 369.347 231.473C368.644 231.063 367.86 230.815 367.049 230.746C366.239 230.676 365.423 230.787 364.661 231.071C344.663 238.496 322.355 233.887 302.599 215.143C301.929 214.507 301.11 214.05 300.216 213.814C299.323 213.579 298.385 213.572 297.488 213.794C296.592 214.017 295.766 214.462 295.086 215.087C294.407 215.713 293.896 216.5 293.601 217.376C291.049 224.955 293.337 235.174 298.881 243.578C302.161 248.532 306.462 252.729 311.494 255.887C316.527 259.046 322.176 261.093 328.064 261.893C341.253 263.84 352.44 261.09 360.294 256.063ZM186.615 354.436C187.682 350.531 189.31 346.516 191.356 343.381C205.304 321.975 232.661 308.5 262.812 308.5C291.918 308.5 318.34 321.029 332.706 341.082L332.893 341.335C333.996 342.753 335.017 344.233 335.951 345.768C337.755 348.903 339.075 352.775 339.878 356.471C340.803 360.519 341.085 364.688 340.714 368.824C340.296 372.74 338.844 378.724 333.674 382.772C327.921 387.282 321.024 386.864 315.458 384.917C289.124 376.315 276.628 372.597 264.33 372.531C252.054 372.465 239.283 376.018 212.476 384.939L212.388 384.972L212.3 384.994C206.14 386.93 198.858 387.37 192.808 382.937C187.011 378.691 185.46 372.201 185.13 367.79C184.874 363.287 185.376 358.773 186.615 354.436Z" fill="white"/>
<path fill-rule="evenodd" clip-rule="evenodd" d="M462 264.5C462 373.851 373.351 462.5 264 462.5C154.649 462.5 66 373.851 66 264.5C66 155.149 154.649 66.5 264 66.5C373.351 66.5 462 155.149 462 264.5ZM440 264.5C440 361.707 361.207 440.5 264 440.5C166.793 440.5 88 361.707 88 264.5C88 167.293 166.793 88.5 264 88.5C361.207 88.5 440 167.293 440 264.5Z" fill="white"/>
</svg>
